<svg id="visual" viewBox="0 0 960 540" width="960" height="540" xmlns="http://www.w3.org/2000/svg" xmlns:xlink="http://www.w3.org/1999/xlink" version="1.1"><path d="M0 104L53 104L53 147L107 147L107 104L160 104L160 190L213 190L213 228L267 228L267 120L320 120L320 125L373 125L373 190L427 190L427 77L480 77L480 195L533 195L533 66L587 66L587 152L640 152L640 185L693 185L693 98L747 98L747 222L800 222L800 39L853 39L853 158L907 158L907 82L960 82L960 44L960 0L960 0L907 0L907 0L853 0L853 0L800 0L800 0L747 0L747 0L693 0L693 0L640 0L640 0L587 0L587 0L533 0L533 0L480 0L480 0L427 0L427 0L373 0L373 0L320 0L320 0L267 0L267 0L213 0L213 0L160 0L160 0L107 0L107 0L53 0L53 0L0 0Z" fill="#3e00ff"></path><path d="M0 276L53 276L53 255L107 255L107 282L160 282L160 271L213 271L213 309L267 309L267 293L320 293L320 228L373 228L373 271L427 271L427 336L480 336L480 212L533 212L533 325L587 325L587 314L640 314L640 255L693 255L693 255L747 255L747 293L800 293L800 260L853 260L853 309L907 309L907 239L960 239L960 233L960 42L960 80L907 80L907 156L853 156L853 37L800 37L800 220L747 220L747 96L693 96L693 183L640 183L640 150L587 150L587 64L533 64L533 193L480 193L480 75L427 75L427 188L373 188L373 123L320 123L320 118L267 118L267 226L213 226L213 188L160 188L160 102L107 102L107 145L53 145L53 102L0 102Z" fill="#4600dd"></path><path d="M0 341L53 341L53 266L107 266L107 352L160 352L160 314L213 314L213 320L267 320L267 320L320 320L320 255L373 255L373 325L427 325L427 363L480 363L480 303L533 303L533 395L587 395L587 363L640 363L640 266L693 266L693 260L747 260L747 357L800 357L800 347L853 347L853 374L907 374L907 282L960 282L960 298L960 231L960 237L907 237L907 307L853 307L853 258L800 258L800 291L747 291L747 253L693 253L693 253L640 253L640 312L587 312L587 323L533 323L533 210L480 210L480 334L427 334L427 269L373 269L373 226L320 226L320 291L267 291L267 307L213 307L213 269L160 269L160 280L107 280L107 253L53 253L53 274L0 274Z" fill="#4800bd"></path><path d="M0 422L53 422L53 347L107 347L107 417L160 417L160 417L213 417L213 384L267 384L267 492L320 492L320 374L373 374L373 363L427 363L427 444L480 444L480 460L533 460L533 411L587 411L587 406L640 406L640 411L693 411L693 384L747 384L747 433L800 433L800 357L853 357L853 433L907 433L907 411L960 411L960 341L960 296L960 280L907 280L907 372L853 372L853 345L800 345L800 355L747 355L747 258L693 258L693 264L640 264L640 361L587 361L587 393L533 393L533 301L480 301L480 361L427 361L427 323L373 323L373 253L320 253L320 318L267 318L267 318L213 318L213 312L160 312L160 350L107 350L107 264L53 264L53 339L0 339Z" fill="#45019e"></path><path d="M0 492L53 492L53 476L107 476L107 460L160 460L160 476L213 476L213 449L267 449L267 519L320 519L320 492L373 492L373 444L427 444L427 455L480 455L480 514L533 514L533 482L587 482L587 509L640 509L640 449L693 449L693 525L747 525L747 444L800 444L800 465L853 465L853 514L907 514L907 449L960 449L960 444L960 339L960 409L907 409L907 431L853 431L853 355L800 355L800 431L747 431L747 382L693 382L693 409L640 409L640 404L587 404L587 409L533 409L533 458L480 458L480 442L427 442L427 361L373 361L373 372L320 372L320 490L267 490L267 382L213 382L213 415L160 415L160 415L107 415L107 345L53 345L53 420L0 420Z" fill="#3f0381"></path><path d="M0 541L53 541L53 541L107 541L107 541L160 541L160 541L213 541L213 541L267 541L267 541L320 541L320 541L373 541L373 541L427 541L427 541L480 541L480 541L533 541L533 541L587 541L587 541L640 541L640 541L693 541L693 541L747 541L747 541L800 541L800 541L853 541L853 541L907 541L907 541L960 541L960 541L960 442L960 447L907 447L907 512L853 512L853 463L800 463L800 442L747 442L747 523L693 523L693 447L640 447L640 507L587 507L587 480L533 480L533 512L480 512L480 453L427 453L427 442L373 442L373 490L320 490L320 517L267 517L267 447L213 447L213 474L160 474L160 458L107 458L107 474L53 474L53 490L0 490Z" fill="#370665"></path></svg>