<svg id="visual" viewBox="0 0 900 600" width="900" height="600" xmlns="http://www.w3.org/2000/svg" xmlns:xlink="http://www.w3.org/1999/xlink" version="1.1"><rect x="0" y="0" width="900" height="600" fill="#001220"></rect><g transform="translate(446.06822918729074 275.2351448509659)"><path d="M70.1 -101.6C99.7 -90.1 138.5 -85.6 161.7 -65C184.9 -44.4 192.4 -7.8 191.2 30.2C190 68.3 180 107.8 155.7 133.7C131.4 159.6 92.7 171.9 55 179.5C17.2 187.1 -19.7 190 -47 175.1C-74.3 160.2 -91.9 127.6 -111.5 99.6C-131.1 71.7 -152.7 48.3 -167.6 17.4C-182.5 -13.6 -190.9 -52.3 -174.5 -76.1C-158 -99.9 -116.9 -108.8 -83.7 -118.7C-50.5 -128.5 -25.2 -139.3 -2.5 -135.4C20.3 -131.5 40.6 -113.1 70.1 -101.6" fill="#9887f6"></path></g></svg>