<svg id="visual" viewBox="0 0 900 450" width="900" height="450" xmlns="http://www.w3.org/2000/svg" xmlns:xlink="http://www.w3.org/1999/xlink" version="1.1"><rect width="900" height="450" fill="#576CBC"></rect><g><g transform="translate(431 312)"><path d="M45.3 -30.3C57.9 -20.3 66.7 -1.6 63.8 16.1C61 33.7 46.6 50.2 28.7 58.4C10.8 66.6 -10.6 66.4 -28.8 58.2C-47.1 50.1 -62.3 33.9 -68.9 13.3C-75.5 -7.2 -73.5 -32.1 -60.6 -42.2C-47.7 -52.3 -23.8 -47.5 -3.7 -44.6C16.4 -41.6 32.7 -40.3 45.3 -30.3Z" fill="#8294C4"></path></g><g transform="translate(831 383)"><path d="M46.2 -29.2C60.2 -19.3 72.1 -0.1 69.1 16.9C66.1 33.8 48.2 48.4 31.8 50.4C15.3 52.4 0.2 41.7 -11 32.6C-22.2 23.5 -29.4 15.9 -37.8 2C-46.2 -11.8 -55.8 -32 -49.7 -40C-43.6 -48.1 -21.8 -44 -2.9 -41.7C16.1 -39.5 32.2 -39 46.2 -29.2Z" fill="#8294C4"></path></g><g transform="translate(633 141)"><path d="M24.6 -17.3C33 -9.2 41.5 1.1 40.4 10.4C39.2 19.7 28.3 28 15.4 35.5C2.6 43 -12.3 49.8 -24.6 45.9C-36.9 42 -46.6 27.4 -47.2 13.9C-47.7 0.4 -39.2 -12 -29.8 -20.3C-20.4 -28.7 -10.2 -32.9 -1 -32.1C8.1 -31.2 16.3 -25.3 24.6 -17.3Z" fill="#8294C4"></path></g><g transform="translate(39 76)"><path d="M28.4 -23.7C32.9 -17 30 -5.4 27.1 5.7C24.1 16.7 21.2 27.2 14.2 31.2C7.3 35.2 -3.6 32.6 -14.2 28.1C-24.8 23.5 -35.2 17 -35.9 9.4C-36.6 1.9 -27.7 -6.5 -20.1 -14C-12.5 -21.4 -6.3 -27.9 2.8 -30.2C11.9 -32.4 23.9 -30.5 28.4 -23.7Z" fill="#8294C4"></path></g><g transform="translate(99 276)"><path d="M14.2 -12.5C16.7 -8.2 15.9 -2.4 13.8 1.7C11.7 5.8 8.4 8.3 4.5 10.7C0.6 13.1 -4 15.4 -7.8 14.3C-11.6 13.2 -14.5 8.6 -15.1 4C-15.8 -0.6 -14 -5.2 -11.1 -9.6C-8.2 -13.9 -4.1 -18 0.9 -18.7C5.9 -19.4 11.7 -16.7 14.2 -12.5Z" fill="#8294C4"></path></g><g transform="translate(844 108)"><path d="M43.3 -29.9C59 -14.9 76.6 3.3 74.2 18.2C71.8 33.1 49.4 44.7 30.4 48C11.4 51.4 -4.3 46.5 -24.8 40.8C-45.3 35.1 -70.5 28.5 -78.2 12.7C-85.9 -3 -76 -27.9 -60 -43C-44.1 -58.1 -22 -63.4 -4.1 -60.2C13.8 -56.9 27.7 -45 43.3 -29.9Z" fill="#8294C4"></path></g><g transform="translate(597 438)"><path d="M37 -27.4C48.3 -15.3 58.1 0.1 56.2 14.5C54.3 29 40.6 42.4 25.6 47.5C10.6 52.5 -5.7 49.1 -22.3 42.6C-38.9 36 -55.7 26.3 -62.7 10.2C-69.7 -6 -66.8 -28.5 -54.7 -40.7C-42.6 -53 -21.3 -55 -4.2 -51.6C12.8 -48.2 25.6 -39.4 37 -27.4Z" fill="#8294C4"></path></g><g transform="translate(291 156)"><path d="M12.7 -11.2C15.6 -6.5 16.5 -1.3 16 4.7C15.5 10.7 13.6 17.5 8.1 22.3C2.5 27.1 -6.6 30 -12.9 26.9C-19.1 23.8 -22.5 14.9 -22.2 7.5C-22 0.1 -18.2 -5.7 -13.9 -10.7C-9.6 -15.8 -4.8 -20.2 0.1 -20.2C4.9 -20.2 9.8 -16 12.7 -11.2Z" fill="#8294C4"></path></g><g transform="translate(254 449)"><path d="M20.9 -16.3C26.3 -10 29.1 -1.4 28.5 8.4C27.8 18.2 23.5 29.2 13.3 38C3.1 46.9 -13 53.7 -24 48.8C-35 43.9 -40.8 27.3 -40.2 13.8C-39.5 0.4 -32.4 -9.9 -24.6 -16.7C-16.8 -23.5 -8.4 -26.8 -0.3 -26.6C7.8 -26.3 15.6 -22.5 20.9 -16.3Z" fill="#8294C4"></path></g><g transform="translate(455 15)"><path d="M48.8 -36C59.5 -25.6 61.7 -5.5 57.3 12.9C53 31.4 42.1 48.1 29.4 50C16.7 51.9 2.1 38.9 -13.7 30.5C-29.4 22.1 -46.4 18.3 -52 7.9C-57.5 -2.5 -51.7 -19.5 -41.1 -29.9C-30.6 -40.3 -15.3 -44.1 1.9 -45.6C19.1 -47.2 38.1 -46.4 48.8 -36Z" fill="#8294C4"></path></g></g></svg>