<svg id="visual" viewBox="0 0 900 600" width="900" height="600" xmlns="http://www.w3.org/2000/svg" xmlns:xlink="http://www.w3.org/1999/xlink" version="1.1"><rect x="0" y="0" width="900" height="600" fill="#001220"></rect><g transform="translate(476.78495351422765 245.5087537549126)"><path d="M47.1 -65.6C62 -43.6 75.8 -29.7 102.3 -0.2C128.7 29.3 167.9 74.4 164.4 108.5C160.9 142.6 114.8 165.8 63.2 192.8C11.6 219.9 -45.5 250.9 -84.2 235.2C-123 219.4 -143.3 157 -169.4 102.4C-195.5 47.8 -227.2 1.1 -215.8 -33.6C-204.4 -68.2 -149.8 -90.8 -106.6 -107.9C-63.4 -124.9 -31.7 -136.5 -7.8 -127.1C16.1 -117.8 32.1 -87.6 47.1 -65.6" fill="#9887f6"></path></g></svg>