<svg id="visual" viewBox="0 0 960 540" width="960" height="540" xmlns="http://www.w3.org/2000/svg" xmlns:xlink="http://www.w3.org/1999/xlink" version="1.1"><rect x="0" y="0" width="960" height="540" fill="#222222"></rect><defs><linearGradient id="grad1_0" x1="43.8%" y1="0%" x2="100%" y2="100%"><stop offset="14.444444444444446%" stop-color="#29a19c" stop-opacity="1"></stop><stop offset="85.55555555555554%" stop-color="#29a19c" stop-opacity="1"></stop></linearGradient></defs><defs><linearGradient id="grad1_1" x1="43.8%" y1="0%" x2="100%" y2="100%"><stop offset="14.444444444444446%" stop-color="#29a19c" stop-opacity="1"></stop><stop offset="85.55555555555554%" stop-color="#2e8d89" stop-opacity="1"></stop></linearGradient></defs><defs><linearGradient id="grad1_2" x1="43.8%" y1="0%" x2="100%" y2="100%"><stop offset="14.444444444444446%" stop-color="#317a76" stop-opacity="1"></stop><stop offset="85.55555555555554%" stop-color="#2e8d89" stop-opacity="1"></stop></linearGradient></defs><defs><linearGradient id="grad1_3" x1="43.8%" y1="0%" x2="100%" y2="100%"><stop offset="14.444444444444446%" stop-color="#317a76" stop-opacity="1"></stop><stop offset="85.55555555555554%" stop-color="#316764" stop-opacity="1"></stop></linearGradient></defs><defs><linearGradient id="grad1_4" x1="43.8%" y1="0%" x2="100%" y2="100%"><stop offset="14.444444444444446%" stop-color="#2f5553" stop-opacity="1"></stop><stop offset="85.55555555555554%" stop-color="#316764" stop-opacity="1"></stop></linearGradient></defs><defs><linearGradient id="grad1_5" x1="43.8%" y1="0%" x2="100%" y2="100%"><stop offset="14.444444444444446%" stop-color="#2f5553" stop-opacity="1"></stop><stop offset="85.55555555555554%" stop-color="#2c4342" stop-opacity="1"></stop></linearGradient></defs><defs><linearGradient id="grad1_6" x1="43.8%" y1="0%" x2="100%" y2="100%"><stop offset="14.444444444444446%" stop-color="#283231" stop-opacity="1"></stop><stop offset="85.55555555555554%" stop-color="#2c4342" stop-opacity="1"></stop></linearGradient></defs><defs><linearGradient id="grad1_7" x1="43.8%" y1="0%" x2="100%" y2="100%"><stop offset="14.444444444444446%" stop-color="#283231" stop-opacity="1"></stop><stop offset="85.55555555555554%" stop-color="#222222" stop-opacity="1"></stop></linearGradient></defs><defs><linearGradient id="grad2_0" x1="0%" y1="0%" x2="56.3%" y2="100%"><stop offset="14.444444444444446%" stop-color="#29a19c" stop-opacity="1"></stop><stop offset="85.55555555555554%" stop-color="#29a19c" stop-opacity="1"></stop></linearGradient></defs><defs><linearGradient id="grad2_1" x1="0%" y1="0%" x2="56.3%" y2="100%"><stop offset="14.444444444444446%" stop-color="#2e8d89" stop-opacity="1"></stop><stop offset="85.55555555555554%" stop-color="#29a19c" stop-opacity="1"></stop></linearGradient></defs><defs><linearGradient id="grad2_2" x1="0%" y1="0%" x2="56.3%" y2="100%"><stop offset="14.444444444444446%" stop-color="#2e8d89" stop-opacity="1"></stop><stop offset="85.55555555555554%" stop-color="#317a76" stop-opacity="1"></stop></linearGradient></defs><defs><linearGradient id="grad2_3" x1="0%" y1="0%" x2="56.3%" y2="100%"><stop offset="14.444444444444446%" stop-color="#316764" stop-opacity="1"></stop><stop offset="85.55555555555554%" stop-color="#317a76" stop-opacity="1"></stop></linearGradient></defs><defs><linearGradient id="grad2_4" x1="0%" y1="0%" x2="56.3%" y2="100%"><stop offset="14.444444444444446%" stop-color="#316764" stop-opacity="1"></stop><stop offset="85.55555555555554%" stop-color="#2f5553" stop-opacity="1"></stop></linearGradient></defs><defs><linearGradient id="grad2_5" x1="0%" y1="0%" x2="56.3%" y2="100%"><stop offset="14.444444444444446%" stop-color="#2c4342" stop-opacity="1"></stop><stop offset="85.55555555555554%" stop-color="#2f5553" stop-opacity="1"></stop></linearGradient></defs><defs><linearGradient id="grad2_6" x1="0%" y1="0%" x2="56.3%" y2="100%"><stop offset="14.444444444444446%" stop-color="#2c4342" stop-opacity="1"></stop><stop offset="85.55555555555554%" stop-color="#283231" stop-opacity="1"></stop></linearGradient></defs><defs><linearGradient id="grad2_7" x1="0%" y1="0%" x2="56.3%" y2="100%"><stop offset="14.444444444444446%" stop-color="#222222" stop-opacity="1"></stop><stop offset="85.55555555555554%" stop-color="#283231" stop-opacity="1"></stop></linearGradient></defs><g transform="translate(960, 0)"><path d="M0 459C-50.6 435 -101.2 411.1 -163.4 394.5C-225.6 377.9 -299.3 368.8 -324.6 324.6C-349.8 280.4 -326.6 201.1 -340.9 141.2C-355.2 81.3 -407.1 40.6 -459 0L0 0Z" fill="#252a2a"></path><path d="M0 401.6C-44.3 380.7 -88.6 359.7 -143 345.2C-197.4 330.7 -261.9 322.7 -284 284C-306.1 245.3 -285.8 176 -298.3 123.6C-310.8 71.1 -356.2 35.6 -401.6 0L0 0Z" fill="#2a3b39"></path><path d="M0 344.3C-38 326.3 -75.9 308.3 -122.6 295.9C-169.2 283.4 -224.5 276.6 -243.4 243.4C-262.4 210.3 -244.9 150.9 -255.7 105.9C-266.4 61 -305.3 30.5 -344.2 0L0 0Z" fill="#2e4c4a"></path><path d="M0 286.9C-31.6 271.9 -63.3 256.9 -102.1 246.6C-141 236.2 -187.1 230.5 -202.9 202.9C-218.6 175.2 -204.1 125.7 -213.1 88.3C-222 50.8 -254.4 25.4 -286.9 0L0 0Z" fill="#305e5b"></path><path d="M0 229.5C-25.3 217.5 -50.6 205.5 -81.7 197.2C-112.8 189 -149.7 184.4 -162.3 162.3C-174.9 140.2 -163.3 100.6 -170.5 70.6C-177.6 40.6 -203.6 20.3 -229.5 0L0 0Z" fill="#31706d"></path><path d="M0 172.1C-19 163.1 -38 154.1 -61.3 147.9C-84.6 141.7 -112.2 138.3 -121.7 121.7C-131.2 105.1 -122.5 75.4 -127.8 53C-133.2 30.5 -152.7 15.2 -172.1 0L0 0Z" fill="#308480"></path><path d="M0 114.8C-12.7 108.8 -25.3 102.8 -40.9 98.6C-56.4 94.5 -74.8 92.2 -81.1 81.1C-87.5 70.1 -81.6 50.3 -85.2 35.3C-88.8 20.3 -101.8 10.2 -114.7 0L0 0Z" fill="#2c9792"></path><path d="M0 57.4C-6.3 54.4 -12.7 51.4 -20.4 49.3C-28.2 47.2 -37.4 46.1 -40.6 40.6C-43.7 35 -40.8 25.1 -42.6 17.7C-44.4 10.2 -50.9 5.1 -57.4 0L0 0Z" fill="#29a19c"></path></g><g transform="translate(0, 540)"><path d="M0 -459C49.7 -432.6 99.4 -406.2 161.5 -389.9C223.6 -373.6 298.1 -367.3 324.6 -324.6C351 -281.8 329.3 -202.5 343.7 -142.4C358.1 -82.2 408.5 -41.1 459 0L0 0Z" fill="#252a2a"></path><path d="M0 -401.6C43.5 -378.5 87 -355.4 141.3 -341.1C195.7 -326.9 260.9 -321.4 284 -284C307.1 -246.6 288.1 -177.2 300.7 -124.6C313.3 -71.9 357.5 -36 401.6 0L0 0Z" fill="#2a3b39"></path><path d="M0 -344.2C37.3 -324.4 74.5 -304.6 121.1 -292.4C167.7 -280.2 223.6 -275.5 243.4 -243.4C263.2 -211.4 247 -151.9 257.8 -106.8C268.6 -61.6 306.4 -30.8 344.3 0L0 0Z" fill="#2e4c4a"></path><path d="M0 -286.9C31.1 -270.4 62.1 -253.9 100.9 -243.7C139.8 -233.5 186.3 -229.6 202.9 -202.9C219.4 -176.1 205.8 -126.6 214.8 -89C223.8 -51.4 255.3 -25.7 286.9 0L0 0Z" fill="#305e5b"></path><path d="M0 -229.5C24.8 -216.3 49.7 -203.1 80.7 -194.9C111.8 -186.8 149.1 -183.7 162.3 -162.3C175.5 -140.9 164.6 -101.3 171.8 -71.2C179 -41.1 204.3 -20.5 229.5 0L0 0Z" fill="#31706d"></path><path d="M0 -172.1C18.6 -162.2 37.3 -152.3 60.6 -146.2C83.9 -140.1 111.8 -137.7 121.7 -121.7C131.6 -105.7 123.5 -76 128.9 -53.4C134.3 -30.8 153.2 -15.4 172.1 0L0 0Z" fill="#308480"></path><path d="M0 -114.7C12.4 -108.1 24.8 -101.5 40.4 -97.5C55.9 -93.4 74.5 -91.8 81.1 -81.1C87.7 -70.5 82.3 -50.6 85.9 -35.6C89.5 -20.5 102.1 -10.3 114.8 0L0 0Z" fill="#2c9792"></path><path d="M0 -57.4C6.2 -54.1 12.4 -50.8 20.2 -48.7C28 -46.7 37.3 -45.9 40.6 -40.6C43.9 -35.2 41.2 -25.3 43 -17.8C44.8 -10.3 51.1 -5.1 57.4 0L0 0Z" fill="#29a19c"></path></g></svg>