<svg id="visual" viewBox="0 0 900 450" width="900" height="450" xmlns="http://www.w3.org/2000/svg" xmlns:xlink="http://www.w3.org/1999/xlink" version="1.1"><rect x="0" y="0" width="900" height="450" fill="#3E00FF"></rect><path d="M0 95L8.8 98.7C17.7 102.3 35.3 109.7 53 113.7C70.7 117.7 88.3 118.3 106 114.3C123.7 110.3 141.3 101.7 159 101.8C176.7 102 194.3 111 212 115C229.7 119 247.3 118 265 119.7C282.7 121.3 300.3 125.7 318 122.2C335.7 118.7 353.3 107.3 371 106.3C388.7 105.3 406.3 114.7 423.8 116C441.3 117.3 458.7 110.7 476.2 106.3C493.7 102 511.3 100 529 105.2C546.7 110.3 564.3 122.7 582 124.8C599.7 127 617.3 119 635 115C652.7 111 670.3 111 688 114.7C705.7 118.3 723.3 125.7 741 129.7C758.7 133.7 776.3 134.3 794 127.7C811.7 121 829.3 107 847 103.2C864.7 99.3 882.3 105.7 891.2 108.8L900 112L900 0L891.2 0C882.3 0 864.7 0 847 0C829.3 0 811.7 0 794 0C776.3 0 758.7 0 741 0C723.3 0 705.7 0 688 0C670.3 0 652.7 0 635 0C617.3 0 599.7 0 582 0C564.3 0 546.7 0 529 0C511.3 0 493.7 0 476.2 0C458.7 0 441.3 0 423.8 0C406.3 0 388.7 0 371 0C353.3 0 335.7 0 318 0C300.3 0 282.7 0 265 0C247.3 0 229.7 0 212 0C194.3 0 176.7 0 159 0C141.3 0 123.7 0 106 0C88.3 0 70.7 0 53 0C35.3 0 17.7 0 8.8 0L0 0Z" fill="#624f82"></path><path d="M0 89L8.8 89.8C17.7 90.7 35.3 92.3 53 95C70.7 97.7 88.3 101.3 106 97.5C123.7 93.7 141.3 82.3 159 78.2C176.7 74 194.3 77 212 74.5C229.7 72 247.3 64 265 67.5C282.7 71 300.3 86 318 90.2C335.7 94.3 353.3 87.7 371 79.7C388.7 71.7 406.3 62.3 423.8 58.3C441.3 54.3 458.7 55.7 476.2 57.2C493.7 58.7 511.3 60.3 529 63C546.7 65.7 564.3 69.3 582 71.7C599.7 74 617.3 75 635 71.7C652.7 68.3 670.3 60.7 688 65.7C705.7 70.7 723.3 88.3 741 92.5C758.7 96.7 776.3 87.3 794 82.3C811.7 77.3 829.3 76.7 847 74.5C864.7 72.3 882.3 68.7 891.2 66.8L900 65L900 0L891.2 0C882.3 0 864.7 0 847 0C829.3 0 811.7 0 794 0C776.3 0 758.7 0 741 0C723.3 0 705.7 0 688 0C670.3 0 652.7 0 635 0C617.3 0 599.7 0 582 0C564.3 0 546.7 0 529 0C511.3 0 493.7 0 476.2 0C458.7 0 441.3 0 423.8 0C406.3 0 388.7 0 371 0C353.3 0 335.7 0 318 0C300.3 0 282.7 0 265 0C247.3 0 229.7 0 212 0C194.3 0 176.7 0 159 0C141.3 0 123.7 0 106 0C88.3 0 70.7 0 53 0C35.3 0 17.7 0 8.8 0L0 0Z" fill="#4f327e"></path><path d="M0 25L8.8 31.3C17.7 37.7 35.3 50.3 53 52.7C70.7 55 88.3 47 106 43.3C123.7 39.7 141.3 40.3 159 44.2C176.7 48 194.3 55 212 57.5C229.7 60 247.3 58 265 57.5C282.7 57 300.3 58 318 57.7C335.7 57.3 353.3 55.7 371 52.2C388.7 48.7 406.3 43.3 423.8 38.3C441.3 33.3 458.7 28.7 476.2 32.7C493.7 36.7 511.3 49.3 529 51.3C546.7 53.3 564.3 44.7 582 41.2C599.7 37.7 617.3 39.3 635 44.2C652.7 49 670.3 57 688 57.8C705.7 58.7 723.3 52.3 741 45.8C758.7 39.3 776.3 32.7 794 31.5C811.7 30.3 829.3 34.7 847 35.3C864.7 36 882.3 33 891.2 31.5L900 30L900 0L891.2 0C882.3 0 864.7 0 847 0C829.3 0 811.7 0 794 0C776.3 0 758.7 0 741 0C723.3 0 705.7 0 688 0C670.3 0 652.7 0 635 0C617.3 0 599.7 0 582 0C564.3 0 546.7 0 529 0C511.3 0 493.7 0 476.2 0C458.7 0 441.3 0 423.8 0C406.3 0 388.7 0 371 0C353.3 0 335.7 0 318 0C300.3 0 282.7 0 265 0C247.3 0 229.7 0 212 0C194.3 0 176.7 0 159 0C141.3 0 123.7 0 106 0C88.3 0 70.7 0 53 0C35.3 0 17.7 0 8.8 0L0 0Z" fill="#3a1078"></path></svg>