<svg id="visual" viewBox="0 0 900 600" width="900" height="600" xmlns="http://www.w3.org/2000/svg" xmlns:xlink="http://www.w3.org/1999/xlink" version="1.1"><rect x="0" y="0" width="900" height="600" fill="#3a1078"></rect><path d="M0 414L75 366L150 375L225 400L300 370L375 423L450 366L525 378L600 348L675 402L750 426L825 340L900 421L900 601L825 601L750 601L675 601L600 601L525 601L450 601L375 601L300 601L225 601L150 601L75 601L0 601Z" fill="#9e4784"></path><path d="M0 457L75 419L150 427L225 429L300 460L375 456L450 458L525 424L600 414L675 451L750 436L825 429L900 396L900 601L825 601L750 601L675 601L600 601L525 601L450 601L375 601L300 601L225 601L150 601L75 601L0 601Z" fill="#914183"></path><path d="M0 501L75 458L150 484L225 439L300 495L375 497L450 501L525 441L600 499L675 498L750 503L825 463L900 461L900 601L825 601L750 601L675 601L600 601L525 601L450 601L375 601L300 601L225 601L150 601L75 601L0 601Z" fill="#843c82"></path><path d="M0 517L75 478L150 496L225 538L300 488L375 524L450 520L525 535L600 514L675 519L750 478L825 534L900 511L900 601L825 601L750 601L675 601L600 601L525 601L450 601L375 601L300 601L225 601L150 601L75 601L0 601Z" fill="#753881"></path><path d="M0 556L75 532L150 558L225 541L300 571L375 559L450 519L525 546L600 555L675 534L750 577L825 540L900 547L900 601L825 601L750 601L675 601L600 601L525 601L450 601L375 601L300 601L225 601L150 601L75 601L0 601Z" fill="#66347f"></path></svg>