<svg id="visual" viewBox="0 0 960 540" width="960" height="540" xmlns="http://www.w3.org/2000/svg" xmlns:xlink="http://www.w3.org/1999/xlink" version="1.1"><g stroke-width="1" stroke-linejoin="bevel"><path d="M503.6 250.5L468 302L527 320.5Z" fill="#e0dffe" stroke="#e0dffe"></path><path d="M460.4 324.5L522.6 342.5L527 320.5Z" fill="#ecf9ff" stroke="#ecf9ff"></path><path d="M468 302L460.4 324.5L527 320.5Z" fill="#e6d6f9" stroke="#e6d6f9"></path><path d="M579.1 331.5L583.6 274L527 320.5Z" fill="#edcdf0" stroke="#edcdf0"></path><path d="M527 320.5L583.6 274L503.6 250.5Z" fill="#e4f4ff" stroke="#e4f4ff"></path><path d="M522.6 342.5L579.1 331.5L527 320.5Z" fill="#e0dffe" stroke="#e0dffe"></path><path d="M428.4 213.5L414.4 287L468 302Z" fill="#e4f4ff" stroke="#e4f4ff"></path><path d="M468 302L414.4 287L460.4 324.5Z" fill="#ecf9ff" stroke="#ecf9ff"></path><path d="M439 188.5L428.4 213.5L503.6 250.5Z" fill="#f5c3e4" stroke="#f5c3e4"></path><path d="M503.6 250.5L428.4 213.5L468 302Z" fill="#ecf9ff" stroke="#ecf9ff"></path><path d="M460.4 324.5L510 403L522.6 342.5Z" fill="#ffb2c1" stroke="#ffb2c1"></path><path d="M522.6 342.5L581.1 374L579.1 331.5Z" fill="#ffacac" stroke="#ffacac"></path><path d="M479 435.5L510 403L460.4 324.5Z" fill="#ecf9ff" stroke="#ecf9ff"></path><path d="M510 403L581.1 374L522.6 342.5Z" fill="#ffacac" stroke="#ffacac"></path><path d="M667.7 300L639.1 245L583.6 274Z" fill="#e0dffe" stroke="#e0dffe"></path><path d="M523.6 150L439 188.5L503.6 250.5Z" fill="#f5c3e4" stroke="#f5c3e4"></path><path d="M523.6 150L433 181L439 188.5Z" fill="#e6d6f9" stroke="#e6d6f9"></path><path d="M439 188.5L433 181L428.4 213.5Z" fill="#fbbad4" stroke="#fbbad4"></path><path d="M331.9 315.5L383.9 372L414.4 287Z" fill="#e4f4ff" stroke="#e4f4ff"></path><path d="M619.1 199.5L523.6 150L503.6 250.5Z" fill="#ecf9ff" stroke="#ecf9ff"></path><path d="M667.7 300L583.6 274L579.1 331.5Z" fill="#ecf9ff" stroke="#ecf9ff"></path><path d="M583.6 274L619.1 199.5L503.6 250.5Z" fill="#dfeeff" stroke="#dfeeff"></path><path d="M639.1 245L619.1 199.5L583.6 274Z" fill="#dfeeff" stroke="#dfeeff"></path><path d="M355.9 221.5L414.4 287L428.4 213.5Z" fill="#f5c3e4" stroke="#f5c3e4"></path><path d="M414.4 287L383.9 372L460.4 324.5Z" fill="#fbbad4" stroke="#fbbad4"></path><path d="M383.9 372L479 435.5L460.4 324.5Z" fill="#edcdf0" stroke="#edcdf0"></path><path d="M510 403L586.1 437.5L581.1 374Z" fill="#fbbad4" stroke="#fbbad4"></path><path d="M479 435.5L504.6 449L510 403Z" fill="#ecf9ff" stroke="#ecf9ff"></path><path d="M368.4 178L355.9 221.5L428.4 213.5Z" fill="#ecf9ff" stroke="#ecf9ff"></path><path d="M644.7 374L579.1 331.5L581.1 374Z" fill="#ecf9ff" stroke="#ecf9ff"></path><path d="M644.7 374L667.7 300L579.1 331.5Z" fill="#f5c3e4" stroke="#f5c3e4"></path><path d="M639.1 245L732.7 180.5L619.1 199.5Z" fill="#e6d6f9" stroke="#e6d6f9"></path><path d="M586.1 437.5L644.7 374L581.1 374Z" fill="#dfeeff" stroke="#dfeeff"></path><path d="M504.6 449L586.1 437.5L510 403Z" fill="#e4f4ff" stroke="#e4f4ff"></path><path d="M355.9 221.5L331.9 284L414.4 287Z" fill="#edcdf0" stroke="#edcdf0"></path><path d="M331.9 284L331.9 315.5L414.4 287Z" fill="#e6d6f9" stroke="#e6d6f9"></path><path d="M457.4 106.5L368.4 178L433 181Z" fill="#dfeeff" stroke="#dfeeff"></path><path d="M433 181L368.4 178L428.4 213.5Z" fill="#edcdf0" stroke="#edcdf0"></path><path d="M355.9 221.5L242.7 185.5L331.9 284Z" fill="#e0dffe" stroke="#e0dffe"></path><path d="M306.3 426.5L414.4 444L383.9 372Z" fill="#f5c3e4" stroke="#f5c3e4"></path><path d="M383.9 372L414.4 444L479 435.5Z" fill="#e4f4ff" stroke="#e4f4ff"></path><path d="M479 435.5L419.4 495.5L504.6 449Z" fill="#ecf9ff" stroke="#ecf9ff"></path><path d="M516.6 64.5L457.4 106.5L523.6 150Z" fill="#dfeeff" stroke="#dfeeff"></path><path d="M523.6 150L457.4 106.5L433 181Z" fill="#edcdf0" stroke="#edcdf0"></path><path d="M644.7 374L699.7 301.5L667.7 300Z" fill="#ffb2c1" stroke="#ffb2c1"></path><path d="M667.7 300L719.3 244.5L639.1 245Z" fill="#e0dffe" stroke="#e0dffe"></path><path d="M314.9 108.5L336.9 177L368.4 178Z" fill="#dee7ff" stroke="#dee7ff"></path><path d="M368.4 178L336.9 177L355.9 221.5Z" fill="#e4f4ff" stroke="#e4f4ff"></path><path d="M503.6 540L545.6 502.5L504.6 449Z" fill="#dfeeff" stroke="#dfeeff"></path><path d="M504.6 449L545.6 502.5L586.1 437.5Z" fill="#dee7ff" stroke="#dee7ff"></path><path d="M586.1 437.5L689.7 460.5L644.7 374Z" fill="#e0dffe" stroke="#e0dffe"></path><path d="M241.7 333.5L296.3 352.5L331.9 315.5Z" fill="#edcdf0" stroke="#edcdf0"></path><path d="M331.9 315.5L296.3 352.5L383.9 372Z" fill="#ecf9ff" stroke="#ecf9ff"></path><path d="M241.7 333.5L331.9 315.5L331.9 284Z" fill="#dfeeff" stroke="#dfeeff"></path><path d="M699.7 301.5L719.3 244.5L667.7 300Z" fill="#e0dffe" stroke="#e0dffe"></path><path d="M648.1 99L516.6 64.5L523.6 150Z" fill="#e0dffe" stroke="#e0dffe"></path><path d="M366.9 518.5L419.4 495.5L414.4 444Z" fill="#edcdf0" stroke="#edcdf0"></path><path d="M414.4 444L419.4 495.5L479 435.5Z" fill="#ffacac" stroke="#ffacac"></path><path d="M648.1 99L523.6 150L619.1 199.5Z" fill="#e4f4ff" stroke="#e4f4ff"></path><path d="M457.4 106.5L314.9 108.5L368.4 178Z" fill="#ffb2c1" stroke="#ffb2c1"></path><path d="M705.7 113L648.1 99L619.1 199.5Z" fill="#ffacac" stroke="#ffacac"></path><path d="M296.3 352.5L306.3 426.5L383.9 372Z" fill="#ffb2c1" stroke="#ffb2c1"></path><path d="M296.3 352.5L292.3 412L306.3 426.5Z" fill="#f5c3e4" stroke="#f5c3e4"></path><path d="M459.4 540L503.6 540L504.6 449Z" fill="#e4f4ff" stroke="#e4f4ff"></path><path d="M637.7 540L689.7 460.5L586.1 437.5Z" fill="#fbbad4" stroke="#fbbad4"></path><path d="M766.3 423L767.3 306.5L699.7 301.5Z" fill="#e4f4ff" stroke="#e4f4ff"></path><path d="M699.7 301.5L767.3 306.5L719.3 244.5Z" fill="#e4f4ff" stroke="#e4f4ff"></path><path d="M614.1 540L586.1 437.5L545.6 502.5Z" fill="#e6d6f9" stroke="#e6d6f9"></path><path d="M503 0L474 38.5L508.6 0Z" fill="#ffb2c1" stroke="#ffb2c1"></path><path d="M516.6 64.5L474 38.5L457.4 106.5Z" fill="#e0dffe" stroke="#e0dffe"></path><path d="M791.3 279L732.7 180.5L719.3 244.5Z" fill="#f5c3e4" stroke="#f5c3e4"></path><path d="M719.3 244.5L732.7 180.5L639.1 245Z" fill="#ffb2c1" stroke="#ffb2c1"></path><path d="M419.4 495.5L459.4 540L504.6 449Z" fill="#fbbad4" stroke="#fbbad4"></path><path d="M451 540L459.4 540L419.4 495.5Z" fill="#ffb2c1" stroke="#ffb2c1"></path><path d="M366.9 518.5L451 540L419.4 495.5Z" fill="#f5c3e4" stroke="#f5c3e4"></path><path d="M371.4 0L314.9 108.5L457.4 106.5Z" fill="#ffb2c1" stroke="#ffb2c1"></path><path d="M226.3 315L241.7 333.5L331.9 284Z" fill="#ffb2c1" stroke="#ffb2c1"></path><path d="M766.3 423L699.7 301.5L644.7 374Z" fill="#ffb2c1" stroke="#ffb2c1"></path><path d="M226.3 315L331.9 284L242.7 185.5Z" fill="#dee7ff" stroke="#dee7ff"></path><path d="M296.3 352.5L249.7 422L292.3 412Z" fill="#ffacac" stroke="#ffacac"></path><path d="M732.7 180.5L705.7 113L619.1 199.5Z" fill="#edcdf0" stroke="#edcdf0"></path><path d="M508.6 0L474 38.5L516.6 64.5Z" fill="#fbbad4" stroke="#fbbad4"></path><path d="M327.9 540L366.9 518.5L306.3 426.5Z" fill="#f5c3e4" stroke="#f5c3e4"></path><path d="M306.3 426.5L366.9 518.5L414.4 444Z" fill="#ffacac" stroke="#ffacac"></path><path d="M809.9 379L777.9 301L767.3 306.5Z" fill="#fbbad4" stroke="#fbbad4"></path><path d="M767.3 306.5L791.3 279L719.3 244.5Z" fill="#e4f4ff" stroke="#e4f4ff"></path><path d="M503.6 540L614.1 540L545.6 502.5Z" fill="#dee7ff" stroke="#dee7ff"></path><path d="M242.7 185.5L355.9 221.5L336.9 177Z" fill="#edcdf0" stroke="#edcdf0"></path><path d="M241.7 333.5L249.7 422L296.3 352.5Z" fill="#ecf9ff" stroke="#ecf9ff"></path><path d="M732.7 180.5L736.3 132L705.7 113Z" fill="#e6d6f9" stroke="#e6d6f9"></path><path d="M785.9 94L736.3 132L732.7 180.5Z" fill="#ffacac" stroke="#ffacac"></path><path d="M314.9 108.5L242.7 185.5L336.9 177Z" fill="#e0dffe" stroke="#e0dffe"></path><path d="M614.1 540L637.7 540L586.1 437.5Z" fill="#e4f4ff" stroke="#e4f4ff"></path><path d="M809.9 379L791.3 279L777.9 301Z" fill="#e6d6f9" stroke="#e6d6f9"></path><path d="M777.9 301L791.3 279L767.3 306.5Z" fill="#dfeeff" stroke="#dfeeff"></path><path d="M180.1 400L249.7 422L241.7 333.5Z" fill="#edcdf0" stroke="#edcdf0"></path><path d="M292.3 412L249.7 422L306.3 426.5Z" fill="#e4f4ff" stroke="#e4f4ff"></path><path d="M508.6 0L516.6 64.5L621.1 0Z" fill="#ffb2c1" stroke="#ffb2c1"></path><path d="M474 38.5L371.4 0L457.4 106.5Z" fill="#dee7ff" stroke="#dee7ff"></path><path d="M621.1 0L516.6 64.5L648.1 99Z" fill="#dee7ff" stroke="#dee7ff"></path><path d="M637.7 540L717.3 485.5L689.7 460.5Z" fill="#ecf9ff" stroke="#ecf9ff"></path><path d="M689.7 460.5L766.3 423L644.7 374Z" fill="#ffacac" stroke="#ffacac"></path><path d="M717.3 485.5L766.3 423L689.7 460.5Z" fill="#ecf9ff" stroke="#ecf9ff"></path><path d="M692.7 60.5L648.1 99L705.7 113Z" fill="#ffacac" stroke="#ffacac"></path><path d="M692.7 60.5L666.1 42.5L648.1 99Z" fill="#e0dffe" stroke="#e0dffe"></path><path d="M785.9 94L692.7 60.5L705.7 113Z" fill="#ecf9ff" stroke="#ecf9ff"></path><path d="M314.9 108.5L229.3 163.5L242.7 185.5Z" fill="#f5c3e4" stroke="#f5c3e4"></path><path d="M242.7 185.5L169.1 217.5L226.3 315Z" fill="#ffb2c1" stroke="#ffb2c1"></path><path d="M246.7 540L327.9 540L306.3 426.5Z" fill="#e6d6f9" stroke="#e6d6f9"></path><path d="M366.9 518.5L327.9 540L451 540Z" fill="#edcdf0" stroke="#edcdf0"></path><path d="M666.1 42.5L621.1 0L648.1 99Z" fill="#edcdf0" stroke="#edcdf0"></path><path d="M635.7 0L621.1 0L666.1 42.5Z" fill="#ffb2c1" stroke="#ffb2c1"></path><path d="M229.3 163.5L212.7 176L242.7 185.5Z" fill="#f5c3e4" stroke="#f5c3e4"></path><path d="M774.3 0L635.7 0L666.1 42.5Z" fill="#f5c3e4" stroke="#f5c3e4"></path><path d="M503 0L371.4 0L474 38.5Z" fill="#edcdf0" stroke="#edcdf0"></path><path d="M314.9 108.5L226.3 100L229.3 163.5Z" fill="#e0dffe" stroke="#e0dffe"></path><path d="M229.3 163.5L184.1 169L212.7 176Z" fill="#edcdf0" stroke="#edcdf0"></path><path d="M850.9 384.5L809.9 379L766.3 423Z" fill="#ecf9ff" stroke="#ecf9ff"></path><path d="M766.3 423L809.9 379L767.3 306.5Z" fill="#ffacac" stroke="#ffacac"></path><path d="M371.4 0L352.9 0L314.9 108.5Z" fill="#dee7ff" stroke="#dee7ff"></path><path d="M352.9 0L288.3 39.5L314.9 108.5Z" fill="#ffb2c1" stroke="#ffb2c1"></path><path d="M288.3 39.5L226.3 100L314.9 108.5Z" fill="#e6d6f9" stroke="#e6d6f9"></path><path d="M161.7 260L166.1 315L226.3 315Z" fill="#f5c3e4" stroke="#f5c3e4"></path><path d="M226.3 315L180.1 400L241.7 333.5Z" fill="#fbbad4" stroke="#fbbad4"></path><path d="M249.7 422L246.7 540L306.3 426.5Z" fill="#fbbad4" stroke="#fbbad4"></path><path d="M169.1 217.5L242.7 185.5L212.7 176Z" fill="#e6d6f9" stroke="#e6d6f9"></path><path d="M226.3 100L184.1 169L229.3 163.5Z" fill="#ffb2c1" stroke="#ffb2c1"></path><path d="M736.3 132L785.9 94L705.7 113Z" fill="#e6d6f9" stroke="#e6d6f9"></path><path d="M692.7 60.5L766.3 21.5L666.1 42.5Z" fill="#ecf9ff" stroke="#ecf9ff"></path><path d="M854.9 201.5L785.9 94L732.7 180.5Z" fill="#f5c3e4" stroke="#f5c3e4"></path><path d="M854.9 201.5L732.7 180.5L791.3 279Z" fill="#dee7ff" stroke="#dee7ff"></path><path d="M166.1 315L180.1 400L226.3 315Z" fill="#e4f4ff" stroke="#e4f4ff"></path><path d="M184.1 169L169.1 217.5L212.7 176Z" fill="#ecf9ff" stroke="#ecf9ff"></path><path d="M637.7 540L739.3 540L717.3 485.5Z" fill="#ffacac" stroke="#ffacac"></path><path d="M717.3 485.5L790.9 501.5L766.3 423Z" fill="#ffb2c1" stroke="#ffb2c1"></path><path d="M169.1 217.5L161.7 260L226.3 315Z" fill="#fbbad4" stroke="#fbbad4"></path><path d="M739.3 540L790.9 501.5L717.3 485.5Z" fill="#fbbad4" stroke="#fbbad4"></path><path d="M790.9 501.5L850.9 384.5L766.3 423Z" fill="#dee7ff" stroke="#dee7ff"></path><path d="M809.9 379L850.9 384.5L791.3 279Z" fill="#ffb2c1" stroke="#ffb2c1"></path><path d="M242.3 540L246.7 540L249.7 422Z" fill="#dfeeff" stroke="#dfeeff"></path><path d="M886.4 229L854.9 201.5L791.3 279Z" fill="#e4f4ff" stroke="#e4f4ff"></path><path d="M177.7 480.5L242.3 540L249.7 422Z" fill="#ffb2c1" stroke="#ffb2c1"></path><path d="M288.3 39.5L239.7 26.5L226.3 100Z" fill="#edcdf0" stroke="#edcdf0"></path><path d="M226.3 100L107.6 104L184.1 169Z" fill="#dee7ff" stroke="#dee7ff"></path><path d="M352.9 0L278.3 0L288.3 39.5Z" fill="#ffb2c1" stroke="#ffb2c1"></path><path d="M166.1 315L108.6 313.5L180.1 400Z" fill="#e6d6f9" stroke="#e6d6f9"></path><path d="M180.1 400L177.7 480.5L249.7 422Z" fill="#fbbad4" stroke="#fbbad4"></path><path d="M161.7 260L132.1 303.5L166.1 315Z" fill="#e6d6f9" stroke="#e6d6f9"></path><path d="M108.6 313.5L132.1 303.5L105.6 304Z" fill="#ffb2c1" stroke="#ffb2c1"></path><path d="M132.1 303.5L161.7 260L105.6 304Z" fill="#dfeeff" stroke="#dfeeff"></path><path d="M278.3 0L239.7 26.5L288.3 39.5Z" fill="#fbbad4" stroke="#fbbad4"></path><path d="M774.3 0L766.3 21.5L831.9 0Z" fill="#fbbad4" stroke="#fbbad4"></path><path d="M785.9 94L766.3 21.5L692.7 60.5Z" fill="#ffb2c1" stroke="#ffb2c1"></path><path d="M109.1 488.5L177.7 480.5L180.1 400Z" fill="#e0dffe" stroke="#e0dffe"></path><path d="M850.9 384.5L886.4 229L791.3 279Z" fill="#ecf9ff" stroke="#ecf9ff"></path><path d="M831.9 0L766.3 21.5L785.9 94Z" fill="#ffacac" stroke="#ffacac"></path><path d="M869.4 119L785.9 94L854.9 201.5Z" fill="#e0dffe" stroke="#e0dffe"></path><path d="M766.3 21.5L774.3 0L666.1 42.5Z" fill="#fbbad4" stroke="#fbbad4"></path><path d="M105.6 304L161.7 260L91.6 217.5Z" fill="#e6d6f9" stroke="#e6d6f9"></path><path d="M132.1 303.5L108.6 313.5L166.1 315Z" fill="#dfeeff" stroke="#dfeeff"></path><path d="M161.7 260L169.1 217.5L91.6 217.5Z" fill="#dfeeff" stroke="#dfeeff"></path><path d="M91.6 217.5L169.1 217.5L184.1 169Z" fill="#ecf9ff" stroke="#ecf9ff"></path><path d="M790.9 501.5L888.4 400L850.9 384.5Z" fill="#dfeeff" stroke="#dfeeff"></path><path d="M850.9 384.5L937.4 360.5L886.4 229Z" fill="#f5c3e4" stroke="#f5c3e4"></path><path d="M922.4 222.5L869.4 119L854.9 201.5Z" fill="#e6d6f9" stroke="#e6d6f9"></path><path d="M278.3 0L212.7 0L239.7 26.5Z" fill="#e6d6f9" stroke="#e6d6f9"></path><path d="M239.7 26.5L168.1 34.5L226.3 100Z" fill="#fbbad4" stroke="#fbbad4"></path><path d="M107.6 104L91.6 217.5L184.1 169Z" fill="#e4f4ff" stroke="#e4f4ff"></path><path d="M212.7 0L168.1 34.5L239.7 26.5Z" fill="#dfeeff" stroke="#dfeeff"></path><path d="M960 266L922.4 222.5L886.4 229Z" fill="#ecf9ff" stroke="#ecf9ff"></path><path d="M886.4 229L922.4 222.5L854.9 201.5Z" fill="#ffb2c1" stroke="#ffb2c1"></path><path d="M739.3 540L854.9 540L790.9 501.5Z" fill="#dee7ff" stroke="#dee7ff"></path><path d="M790.9 501.5L854.9 540L888.4 400Z" fill="#ffacac" stroke="#ffacac"></path><path d="M869.4 119L869.9 51.5L785.9 94Z" fill="#e0dffe" stroke="#e0dffe"></path><path d="M960 100L869.9 51.5L869.4 119Z" fill="#fbbad4" stroke="#fbbad4"></path><path d="M869.9 51.5L831.9 0L785.9 94Z" fill="#f5c3e4" stroke="#f5c3e4"></path><path d="M168.1 34.5L107.6 104L226.3 100Z" fill="#e4f4ff" stroke="#e4f4ff"></path><path d="M960 408L937.4 360.5L888.4 400Z" fill="#ffb2c1" stroke="#ffb2c1"></path><path d="M888.4 400L937.4 360.5L850.9 384.5Z" fill="#e6d6f9" stroke="#e6d6f9"></path><path d="M37.6 426.5L109.1 488.5L180.1 400Z" fill="#e4f4ff" stroke="#e4f4ff"></path><path d="M177.7 480.5L119.1 540L242.3 540Z" fill="#f5c3e4" stroke="#f5c3e4"></path><path d="M38.6 388L180.1 400L108.6 313.5Z" fill="#f5c3e4" stroke="#f5c3e4"></path><path d="M38.6 388L108.6 313.5L0 345.5Z" fill="#f5c3e4" stroke="#f5c3e4"></path><path d="M937.4 360.5L960 266L886.4 229Z" fill="#dfeeff" stroke="#dfeeff"></path><path d="M922.4 222.5L960 100L869.4 119Z" fill="#ecf9ff" stroke="#ecf9ff"></path><path d="M960 266L960 247.5L922.4 222.5Z" fill="#ecf9ff" stroke="#ecf9ff"></path><path d="M940.4 19.5L859.4 0L869.9 51.5Z" fill="#e0dffe" stroke="#e0dffe"></path><path d="M869.9 51.5L859.4 0L831.9 0Z" fill="#fbbad4" stroke="#fbbad4"></path><path d="M960 408L960 339.5L937.4 360.5Z" fill="#e6d6f9" stroke="#e6d6f9"></path><path d="M937.4 360.5L960 339.5L960 266Z" fill="#e4f4ff" stroke="#e4f4ff"></path><path d="M109.1 488.5L119.1 540L177.7 480.5Z" fill="#f5c3e4" stroke="#f5c3e4"></path><path d="M212.7 0L141.1 0L168.1 34.5Z" fill="#edcdf0" stroke="#edcdf0"></path><path d="M168.1 34.5L91.6 21.5L107.6 104Z" fill="#ffb2c1" stroke="#ffb2c1"></path><path d="M854.9 540L914.4 515.5L888.4 400Z" fill="#e6d6f9" stroke="#e6d6f9"></path><path d="M960 465.5L960 408L888.4 400Z" fill="#edcdf0" stroke="#edcdf0"></path><path d="M0 235L105.6 304L91.6 217.5Z" fill="#dfeeff" stroke="#dfeeff"></path><path d="M0 345.5L108.6 313.5L105.6 304Z" fill="#dfeeff" stroke="#dfeeff"></path><path d="M109.1 488.5L37.6 540L119.1 540Z" fill="#f5c3e4" stroke="#f5c3e4"></path><path d="M854.9 540L920.4 540L914.4 515.5Z" fill="#e6d6f9" stroke="#e6d6f9"></path><path d="M914.4 515.5L960 465.5L888.4 400Z" fill="#dfeeff" stroke="#dfeeff"></path><path d="M38.6 388L37.6 426.5L180.1 400Z" fill="#e6d6f9" stroke="#e6d6f9"></path><path d="M960 540L960 465.5L914.4 515.5Z" fill="#edcdf0" stroke="#edcdf0"></path><path d="M141.1 0L91.6 21.5L168.1 34.5Z" fill="#ffacac" stroke="#ffacac"></path><path d="M0 210.5L0 235L91.6 217.5Z" fill="#ffacac" stroke="#ffacac"></path><path d="M110.6 0L91.6 21.5L141.1 0Z" fill="#e4f4ff" stroke="#e4f4ff"></path><path d="M960 247.5L960 100L922.4 222.5Z" fill="#dfeeff" stroke="#dfeeff"></path><path d="M0 210.5L91.6 217.5L0 98Z" fill="#edcdf0" stroke="#edcdf0"></path><path d="M38.6 388L0 391L37.6 426.5Z" fill="#edcdf0" stroke="#edcdf0"></path><path d="M0 235L0 345.5L105.6 304Z" fill="#ffacac" stroke="#ffacac"></path><path d="M0 98L91.6 217.5L107.6 104Z" fill="#dee7ff" stroke="#dee7ff"></path><path d="M960 100L960 57.5L869.9 51.5Z" fill="#ffacac" stroke="#ffacac"></path><path d="M960 57.5L940.4 19.5L869.9 51.5Z" fill="#ffacac" stroke="#ffacac"></path><path d="M0 345.5L0 391L38.6 388Z" fill="#dee7ff" stroke="#dee7ff"></path><path d="M0 497.5L37.6 540L109.1 488.5Z" fill="#dfeeff" stroke="#dfeeff"></path><path d="M920.4 540L960 540L914.4 515.5Z" fill="#e4f4ff" stroke="#e4f4ff"></path><path d="M0 497.5L109.1 488.5L37.6 426.5Z" fill="#edcdf0" stroke="#edcdf0"></path><path d="M0 83.5L0 98L107.6 104Z" fill="#dee7ff" stroke="#dee7ff"></path><path d="M0 83.5L107.6 104L91.6 21.5Z" fill="#ffacac" stroke="#ffacac"></path><path d="M960 57.5L960 0L940.4 19.5Z" fill="#dee7ff" stroke="#dee7ff"></path><path d="M940.4 19.5L960 0L859.4 0Z" fill="#dee7ff" stroke="#dee7ff"></path><path d="M0 0L0 83.5L91.6 21.5Z" fill="#fbbad4" stroke="#fbbad4"></path><path d="M0 391L0 497.5L37.6 426.5Z" fill="#e0dffe" stroke="#e0dffe"></path><path d="M0 497.5L0 540L37.6 540Z" fill="#edcdf0" stroke="#edcdf0"></path><path d="M110.6 0L0 0L91.6 21.5Z" fill="#e0dffe" stroke="#e0dffe"></path></g></svg>