<svg id="visual" viewBox="0 0 960 540" width="960" height="540" xmlns="http://www.w3.org/2000/svg" xmlns:xlink="http://www.w3.org/1999/xlink" version="1.1"><rect width="960" height="540" fill="#247881"></rect><g><g transform="translate(419 283)"><path d="M0 -61.5L53.3 -30.8L53.3 30.8L0 61.5L-53.3 30.8L-53.3 -30.8Z" fill="none" stroke="#00FFD1" stroke-width="2"></path></g><g transform="translate(735 475)"><path d="M0 -20L17.3 -10L17.3 10L0 20L-17.3 10L-17.3 -10Z" fill="none" stroke="#00FFD1" stroke-width="2"></path></g><g transform="translate(551 187)"><path d="M0 -50L43.3 -25L43.3 25L0 50L-43.3 25L-43.3 -25Z" fill="none" stroke="#00FFD1" stroke-width="2"></path></g><g transform="translate(693 252)"><path d="M0 -36L31.2 -18L31.2 18L0 36L-31.2 18L-31.2 -18Z" fill="none" stroke="#00FFD1" stroke-width="2"></path></g><g transform="translate(942 85)"><path d="M0 -33L28.6 -16.5L28.6 16.5L0 33L-28.6 16.5L-28.6 -16.5Z" fill="none" stroke="#00FFD1" stroke-width="2"></path></g><g transform="translate(330 499)"><path d="M0 -16L13.9 -8L13.9 8L0 16L-13.9 8L-13.9 -8Z" fill="none" stroke="#00FFD1" stroke-width="2"></path></g><g transform="translate(134 413)"><path d="M0 -28L24.2 -14L24.2 14L0 28L-24.2 14L-24.2 -14Z" fill="none" stroke="#00FFD1" stroke-width="2"></path></g><g transform="translate(926 241)"><path d="M0 -20L17.3 -10L17.3 10L0 20L-17.3 10L-17.3 -10Z" fill="none" stroke="#00FFD1" stroke-width="2"></path></g><g transform="translate(775 132)"><path d="M0 -34L29.4 -17L29.4 17L0 34L-29.4 17L-29.4 -17Z" fill="none" stroke="#00FFD1" stroke-width="2"></path></g><g transform="translate(92 12)"><path d="M0 -52L45 -26L45 26L0 52L-45 26L-45 -26Z" fill="none" stroke="#00FFD1" stroke-width="2"></path></g><g transform="translate(209 79)"><path d="M0 -56L48.5 -28L48.5 28L0 56L-48.5 28L-48.5 -28Z" fill="none" stroke="#00FFD1" stroke-width="2"></path></g><g transform="translate(49 511)"><path d="M0 -22L19.1 -11L19.1 11L0 22L-19.1 11L-19.1 -11Z" fill="none" stroke="#00FFD1" stroke-width="2"></path></g><g transform="translate(632 65)"><path d="M0 -15L13 -7.5L13 7.5L0 15L-13 7.5L-13 -7.5Z" fill="none" stroke="#00FFD1" stroke-width="2"></path></g><g transform="translate(892 394)"><path d="M0 -39L33.8 -19.5L33.8 19.5L0 39L-33.8 19.5L-33.8 -19.5Z" fill="none" stroke="#00FFD1" stroke-width="2"></path></g><g transform="translate(68 278)"><path d="M0 -56L48.5 -28L48.5 28L0 56L-48.5 28L-48.5 -28Z" fill="none" stroke="#00FFD1" stroke-width="2"></path></g><g transform="translate(300 216)"><path d="M0 -45L39 -22.5L39 22.5L0 45L-39 22.5L-39 -22.5Z" fill="none" stroke="#00FFD1" stroke-width="2"></path></g><g transform="translate(556 459)"><path d="M0 -48L41.6 -24L41.6 24L0 48L-41.6 24L-41.6 -24Z" fill="none" stroke="#00FFD1" stroke-width="2"></path></g><g transform="translate(79 149)"><path d="M0 -47L40.7 -23.5L40.7 23.5L0 47L-40.7 23.5L-40.7 -23.5Z" fill="none" stroke="#00FFD1" stroke-width="2"></path></g><g transform="translate(427 134)"><path d="M0 -9L7.8 -4.5L7.8 4.5L0 9L-7.8 4.5L-7.8 -4.5Z" fill="none" stroke="#00FFD1" stroke-width="2"></path></g></g></svg>