<svg id="visual" viewBox="0 0 450 900" width="450" height="900" xmlns="http://www.w3.org/2000/svg" xmlns:xlink="http://www.w3.org/1999/xlink" version="1.1"><rect x="0" y="0" width="450" height="900" fill="#ECF2FF"></rect><path d="M100 900L106.5 892.5C113 885 126 870 137 855C148 840 157 825 162.3 810C167.7 795 169.3 780 181.8 765C194.3 750 217.7 735 230.3 720C243 705 245 690 243.3 675C241.7 660 236.3 645 239 630C241.7 615 252.3 600 258.2 585C264 570 265 555 241.5 540C218 525 170 510 163.2 495C156.3 480 190.7 465 191.2 450C191.7 435 158.3 420 156.3 405C154.3 390 183.7 375 209.5 360C235.3 345 257.7 330 241.3 315C225 300 170 285 148.2 270C126.3 255 137.7 240 142.7 225C147.7 210 146.3 195 140.2 180C134 165 123 150 132.5 135C142 120 172 105 183.5 90C195 75 188 60 191.7 45C195.3 30 209.7 15 216.8 7.5L224 0L450 0L450 7.5C450 15 450 30 450 45C450 60 450 75 450 90C450 105 450 120 450 135C450 150 450 165 450 180C450 195 450 210 450 225C450 240 450 255 450 270C450 285 450 300 450 315C450 330 450 345 450 360C450 375 450 390 450 405C450 420 450 435 450 450C450 465 450 480 450 495C450 510 450 525 450 540C450 555 450 570 450 585C450 600 450 615 450 630C450 645 450 660 450 675C450 690 450 705 450 720C450 735 450 750 450 765C450 780 450 795 450 810C450 825 450 840 450 855C450 870 450 885 450 892.5L450 900Z" fill="#b2a4ff"></path><path d="M219 900L214.8 892.5C210.7 885 202.3 870 213 855C223.7 840 253.3 825 258.8 810C264.3 795 245.7 780 246.3 765C247 750 267 735 251.3 720C235.7 705 184.3 690 185.3 675C186.3 660 239.7 645 265.7 630C291.7 615 290.3 600 282.2 585C274 570 259 555 234.2 540C209.3 525 174.7 510 177.3 495C180 480 220 465 244.3 450C268.7 435 277.3 420 272.5 405C267.7 390 249.3 375 223.5 360C197.7 345 164.3 330 151.8 315C139.3 300 147.7 285 171.3 270C195 255 234 240 248.8 225C263.7 210 254.3 195 231.3 180C208.3 165 171.7 150 173.2 135C174.7 120 214.3 105 223.8 90C233.3 75 212.7 60 216.5 45C220.3 30 248.7 15 262.8 7.5L277 0L450 0L450 7.5C450 15 450 30 450 45C450 60 450 75 450 90C450 105 450 120 450 135C450 150 450 165 450 180C450 195 450 210 450 225C450 240 450 255 450 270C450 285 450 300 450 315C450 330 450 345 450 360C450 375 450 390 450 405C450 420 450 435 450 450C450 465 450 480 450 495C450 510 450 525 450 540C450 555 450 570 450 585C450 600 450 615 450 630C450 645 450 660 450 675C450 690 450 705 450 720C450 735 450 750 450 765C450 780 450 795 450 810C450 825 450 840 450 855C450 870 450 885 450 892.5L450 900Z" fill="#a697fb"></path><path d="M266 900L259.7 892.5C253.3 885 240.7 870 228.2 855C215.7 840 203.3 825 208.7 810C214 795 237 780 236.2 765C235.3 750 210.7 735 212.2 720C213.7 705 241.3 690 262.2 675C283 660 297 645 294.2 630C291.3 615 271.7 600 247.8 585C224 570 196 555 197.5 540C199 525 230 510 230.8 495C231.7 480 202.3 465 185.8 450C169.3 435 165.7 420 182.5 405C199.3 390 236.7 375 262.2 360C287.7 345 301.3 330 303.2 315C305 300 295 285 286.3 270C277.7 255 270.3 240 269.3 225C268.3 210 273.7 195 257.2 180C240.7 165 202.3 150 183.5 135C164.7 120 165.3 105 180.7 90C196 75 226 60 226.7 45C227.3 30 198.7 15 184.3 7.5L170 0L450 0L450 7.5C450 15 450 30 450 45C450 60 450 75 450 90C450 105 450 120 450 135C450 150 450 165 450 180C450 195 450 210 450 225C450 240 450 255 450 270C450 285 450 300 450 315C450 330 450 345 450 360C450 375 450 390 450 405C450 420 450 435 450 450C450 465 450 480 450 495C450 510 450 525 450 540C450 555 450 570 450 585C450 600 450 615 450 630C450 645 450 660 450 675C450 690 450 705 450 720C450 735 450 750 450 765C450 780 450 795 450 810C450 825 450 840 450 855C450 870 450 885 450 892.5L450 900Z" fill="#9b8af7"></path><path d="M208 900L219.8 892.5C231.7 885 255.3 870 267.5 855C279.7 840 280.3 825 275.3 810C270.3 795 259.7 780 267.7 765C275.7 750 302.3 735 307 720C311.7 705 294.3 690 287.2 675C280 660 283 645 276.5 630C270 615 254 600 241.8 585C229.7 570 221.3 555 230.3 540C239.3 525 265.7 510 265.2 495C264.7 480 237.3 465 236.2 450C235 435 260 420 265.8 405C271.7 390 258.3 375 249.5 360C240.7 345 236.3 330 247.8 315C259.3 300 286.7 285 292.7 270C298.7 255 283.3 240 270 225C256.7 210 245.3 195 249 180C252.7 165 271.3 150 267.8 135C264.3 120 238.7 105 238.7 90C238.7 75 264.3 60 266 45C267.7 30 245.3 15 234.2 7.5L223 0L450 0L450 7.5C450 15 450 30 450 45C450 60 450 75 450 90C450 105 450 120 450 135C450 150 450 165 450 180C450 195 450 210 450 225C450 240 450 255 450 270C450 285 450 300 450 315C450 330 450 345 450 360C450 375 450 390 450 405C450 420 450 435 450 450C450 465 450 480 450 495C450 510 450 525 450 540C450 555 450 570 450 585C450 600 450 615 450 630C450 645 450 660 450 675C450 690 450 705 450 720C450 735 450 750 450 765C450 780 450 795 450 810C450 825 450 840 450 855C450 870 450 885 450 892.5L450 900Z" fill="#8f7df3"></path><path d="M245 900L244.2 892.5C243.3 885 241.7 870 243.2 855C244.7 840 249.3 825 251.2 810C253 795 252 780 259.5 765C267 750 283 735 291.5 720C300 705 301 690 291.2 675C281.3 660 260.7 645 261 630C261.3 615 282.7 600 295.5 585C308.3 570 312.7 555 302.8 540C293 525 269 510 267.3 495C265.7 480 286.3 465 288 450C289.7 435 272.3 420 259.2 405C246 390 237 375 237.7 360C238.3 345 248.7 330 257.7 315C266.7 300 274.3 285 269.8 270C265.3 255 248.7 240 240.3 225C232 210 232 195 231.8 180C231.7 165 231.3 150 246.3 135C261.3 120 291.7 105 293.8 90C296 75 270 60 265.8 45C261.7 30 279.3 15 288.2 7.5L297 0L450 0L450 7.5C450 15 450 30 450 45C450 60 450 75 450 90C450 105 450 120 450 135C450 150 450 165 450 180C450 195 450 210 450 225C450 240 450 255 450 270C450 285 450 300 450 315C450 330 450 345 450 360C450 375 450 390 450 405C450 420 450 435 450 450C450 465 450 480 450 495C450 510 450 525 450 540C450 555 450 570 450 585C450 600 450 615 450 630C450 645 450 660 450 675C450 690 450 705 450 720C450 735 450 750 450 765C450 780 450 795 450 810C450 825 450 840 450 855C450 870 450 885 450 892.5L450 900Z" fill="#8270ef"></path><path d="M341 900L342.5 892.5C344 885 347 870 349.8 855C352.7 840 355.3 825 355.7 810C356 795 354 780 350.8 765C347.7 750 343.3 735 329.3 720C315.3 705 291.7 690 283.7 675C275.7 660 283.3 645 295 630C306.7 615 322.3 600 331.7 585C341 570 344 555 335 540C326 525 305 510 294.3 495C283.7 480 283.3 465 283.7 450C284 435 285 420 295.7 405C306.3 390 326.7 375 328.7 360C330.7 345 314.3 330 308.3 315C302.3 300 306.7 285 316.7 270C326.7 255 342.3 240 346 225C349.7 210 341.3 195 333.3 180C325.3 165 317.7 150 316.5 135C315.3 120 320.7 105 324.5 90C328.3 75 330.7 60 321.5 45C312.3 30 291.7 15 281.3 7.5L271 0L450 0L450 7.5C450 15 450 30 450 45C450 60 450 75 450 90C450 105 450 120 450 135C450 150 450 165 450 180C450 195 450 210 450 225C450 240 450 255 450 270C450 285 450 300 450 315C450 330 450 345 450 360C450 375 450 390 450 405C450 420 450 435 450 450C450 465 450 480 450 495C450 510 450 525 450 540C450 555 450 570 450 585C450 600 450 615 450 630C450 645 450 660 450 675C450 690 450 705 450 720C450 735 450 750 450 765C450 780 450 795 450 810C450 825 450 840 450 855C450 870 450 885 450 892.5L450 900Z" fill="#7664eb"></path><path d="M319 900L324.3 892.5C329.7 885 340.3 870 344.5 855C348.7 840 346.3 825 343 810C339.7 795 335.3 780 328.3 765C321.3 750 311.7 735 311 720C310.3 705 318.7 690 323.5 675C328.3 660 329.7 645 327.7 630C325.7 615 320.3 600 328.5 585C336.7 570 358.3 555 362.7 540C367 525 354 510 351.3 495C348.7 480 356.3 465 361.3 450C366.3 435 368.7 420 364.5 405C360.3 390 349.7 375 339.3 360C329 345 319 330 315 315C311 300 313 285 318.2 270C323.3 255 331.7 240 341.3 225C351 210 362 195 361.3 180C360.7 165 348.3 150 338.2 135C328 120 320 105 323.3 90C326.7 75 341.3 60 345.2 45C349 30 342 15 338.5 7.5L335 0L450 0L450 7.5C450 15 450 30 450 45C450 60 450 75 450 90C450 105 450 120 450 135C450 150 450 165 450 180C450 195 450 210 450 225C450 240 450 255 450 270C450 285 450 300 450 315C450 330 450 345 450 360C450 375 450 390 450 405C450 420 450 435 450 450C450 465 450 480 450 495C450 510 450 525 450 540C450 555 450 570 450 585C450 600 450 615 450 630C450 645 450 660 450 675C450 690 450 705 450 720C450 735 450 750 450 765C450 780 450 795 450 810C450 825 450 840 450 855C450 870 450 885 450 892.5L450 900Z" fill="#6857e7"></path><path d="M326 900L333.5 892.5C341 885 356 870 365.2 855C374.3 840 377.7 825 372 810C366.3 795 351.7 780 352 765C352.3 750 367.7 735 367.3 720C367 705 351 690 349.8 675C348.7 660 362.3 645 369.5 630C376.7 615 377.3 600 372.7 585C368 570 358 555 351 540C344 525 340 510 344.7 495C349.3 480 362.7 465 371.7 450C380.7 435 385.3 420 382.3 405C379.3 390 368.7 375 363.2 360C357.7 345 357.3 330 354.5 315C351.7 300 346.3 285 348.3 270C350.3 255 359.7 240 364.8 225C370 210 371 195 366.2 180C361.3 165 350.7 150 348.7 135C346.7 120 353.3 105 351.2 90C349 75 338 60 337.8 45C337.7 30 348.3 15 353.7 7.5L359 0L450 0L450 7.5C450 15 450 30 450 45C450 60 450 75 450 90C450 105 450 120 450 135C450 150 450 165 450 180C450 195 450 210 450 225C450 240 450 255 450 270C450 285 450 300 450 315C450 330 450 345 450 360C450 375 450 390 450 405C450 420 450 435 450 450C450 465 450 480 450 495C450 510 450 525 450 540C450 555 450 570 450 585C450 600 450 615 450 630C450 645 450 660 450 675C450 690 450 705 450 720C450 735 450 750 450 765C450 780 450 795 450 810C450 825 450 840 450 855C450 870 450 885 450 892.5L450 900Z" fill="#5a4ae2"></path><path d="M383 900L387.5 892.5C392 885 401 870 403.2 855C405.3 840 400.7 825 395.2 810C389.7 795 383.3 780 380.3 765C377.3 750 377.7 735 379 720C380.3 705 382.7 690 381.3 675C380 660 375 645 372 630C369 615 368 600 375.2 585C382.3 570 397.7 555 397.7 540C397.7 525 382.3 510 376.3 495C370.3 480 373.7 465 373 450C372.3 435 367.7 420 370.5 405C373.3 390 383.7 375 388.7 360C393.7 345 393.3 330 394.2 315C395 300 397 285 398 270C399 255 399 240 399.5 225C400 210 401 195 402.5 180C404 165 406 150 403.7 135C401.3 120 394.7 105 393.7 90C392.7 75 397.3 60 397.8 45C398.3 30 394.7 15 392.8 7.5L391 0L450 0L450 7.5C450 15 450 30 450 45C450 60 450 75 450 90C450 105 450 120 450 135C450 150 450 165 450 180C450 195 450 210 450 225C450 240 450 255 450 270C450 285 450 300 450 315C450 330 450 345 450 360C450 375 450 390 450 405C450 420 450 435 450 450C450 465 450 480 450 495C450 510 450 525 450 540C450 555 450 570 450 585C450 600 450 615 450 630C450 645 450 660 450 675C450 690 450 705 450 720C450 735 450 750 450 765C450 780 450 795 450 810C450 825 450 840 450 855C450 870 450 885 450 892.5L450 900Z" fill="#4a3dde"></path><path d="M414 900L414.8 892.5C415.7 885 417.3 870 414.2 855C411 840 403 825 400 810C397 795 399 780 399 765C399 750 397 735 400 720C403 705 411 690 414.8 675C418.7 660 418.3 645 418.3 630C418.3 615 418.7 600 416.7 585C414.7 570 410.3 555 408.7 540C407 525 408 510 410.2 495C412.3 480 415.7 465 418.7 450C421.7 435 424.3 420 421.3 405C418.3 390 409.7 375 407.8 360C406 345 411 330 412.2 315C413.3 300 410.7 285 412.8 270C415 255 422 240 420.7 225C419.3 210 409.7 195 407.7 180C405.7 165 411.3 150 413.7 135C416 120 415 105 413.7 90C412.3 75 410.7 60 409.8 45C409 30 409 15 409 7.5L409 0L450 0L450 7.5C450 15 450 30 450 45C450 60 450 75 450 90C450 105 450 120 450 135C450 150 450 165 450 180C450 195 450 210 450 225C450 240 450 255 450 270C450 285 450 300 450 315C450 330 450 345 450 360C450 375 450 390 450 405C450 420 450 435 450 450C450 465 450 480 450 495C450 510 450 525 450 540C450 555 450 570 450 585C450 600 450 615 450 630C450 645 450 660 450 675C450 690 450 705 450 720C450 735 450 750 450 765C450 780 450 795 450 810C450 825 450 840 450 855C450 870 450 885 450 892.5L450 900Z" fill="#362fd9"></path></svg>